<?xml version="1.0" encoding="UTF-8" standalone="no"?>
<!-- Created with Inkscape (http://www.inkscape.org/) -->

<svg
   xmlns:dc="http://purl.org/dc/elements/1.1/"
   xmlns:cc="http://creativecommons.org/ns#"
   xmlns:rdf="http://www.w3.org/1999/02/22-rdf-syntax-ns#"
   xmlns:svg="http://www.w3.org/2000/svg"
   xmlns="http://www.w3.org/2000/svg"
   xmlns:sodipodi="http://sodipodi.sourceforge.net/DTD/sodipodi-0.dtd"
   xmlns:inkscape="http://www.inkscape.org/namespaces/inkscape"
   width="10.688mm"
   height="14.912mm"
   viewBox="0 0 10.688 14.912"
   version="1.1"
   id="svg838"
   inkscape:version="0.92.4 (5da689c313, 2019-01-14)"
   sodipodi:docname="flag.svg">
  <defs
     id="defs832" />
  <sodipodi:namedview
     id="base"
     pagecolor="#ffffff"
     bordercolor="#666666"
     borderopacity="1.0"
     inkscape:pageopacity="0.0"
     inkscape:pageshadow="2"
     inkscape:zoom="1.4"
     inkscape:cx="178.00236"
     inkscape:cy="-18.175389"
     inkscape:document-units="mm"
     inkscape:current-layer="layer1"
     showgrid="false"
     inkscape:window-width="1920"
     inkscape:window-height="986"
     inkscape:window-x="-11"
     inkscape:window-y="-11"
     inkscape:window-maximized="1" />
  <metadata
     id="metadata835">
    <rdf:RDF>
      <cc:Work
         rdf:about="">
        <dc:format>image/svg+xml</dc:format>
        <dc:type
           rdf:resource="http://purl.org/dc/dcmitype/StillImage" />
        <dc:title></dc:title>
      </cc:Work>
    </rdf:RDF>
  </metadata>
  <g
     inkscape:label="Layer 1"
     inkscape:groupmode="layer"
     id="layer1"
     transform="translate(0,-282.088)">
    <path
       inkscape:connector-curvature="0"
       id="path1399"
       style="font-style:normal;font-variant:normal;font-weight:normal;font-stretch:normal;font-size:10.58333302px;line-height:1.25;font-family:'Cambria Math';-inkscape-font-specification:'Cambria Math';letter-spacing:0px;word-spacing:0px;fill:#ff0000;fill-opacity:1;stroke:none;stroke-width:0.26457879"
       d="m 7.2170626,282.58839 c 0.292833,0 0.56155,0.0121 0.806152,0.0362 0.244602,0.0207 0.482314,0.0568 0.713135,0.10851 0.230821,0.0483 0.463365,0.112 0.697632,0.1912 0.234266,0.0758 0.485758,0.16708 0.7544764,0.27388 v 6.80037 c -0.03789,-0.0172 -0.07407,-0.0327 -0.108521,-0.0465 -0.03445,-0.0138 -0.07063,-0.0276 -0.1085204,-0.0413 -0.248047,-0.0999 -0.477146,-0.18948 -0.687297,-0.26871 -0.206706,-0.0792 -0.415134,-0.14469 -0.625285,-0.19636 -0.210151,-0.0551 -0.430637,-0.0965 -0.661458,-0.12402 -0.227377,-0.031 -0.487481,-0.0465 -0.780314,-0.0465 -0.34451,0 -0.675239,0.0224 -0.992188,0.0672 -0.313503,0.0448 -0.632175,0.12747 -0.956014,0.24804 -0.413411,0.15502 -0.8251,0.26526 -1.235066,0.33072 -0.406521,0.062 -0.830268,0.093 -1.271241,0.093 -0.251492,0 -0.501261,-0.0103 -0.749308,-0.031 -0.244601,-0.0207 -0.490926,-0.0551 -0.738973,-0.10334 l -0.0052,-6.68312 c 0.37207,0.062 1.117937,0.13549 1.493452,0.13549 0.34451,0 0.673517,-0.0224 0.98702,-0.0672 0.316949,-0.0483 0.637343,-0.13266 0.961182,-0.25321 0.413411,-0.15502 0.823378,-0.26354 1.229899,-0.32555 0.409966,-0.0655 0.835435,-0.0982 1.276408,-0.0982 z"
       sodipodi:nodetypes="cccccccccccscccscccsccccc" />
    <rect
       style="opacity:1;fill:#767676;fill-opacity:1;stroke:none;stroke-width:0;stroke-linecap:round;stroke-linejoin:round;stroke-miterlimit:4;stroke-dasharray:none;stroke-dashoffset:0;stroke-opacity:1"
       id="rect1408"
       width="0.77427554"
       height="13.396334"
       x="0.5"
       y="283.10367" />
  </g>
</svg>
